<?xml version="1.0" encoding="UTF-8"?><!DOCTYPE svg PUBLIC "-//W3C//DTD SVG 1.1//EN" "http://www.w3.org/Graphics/SVG/1.1/DTD/svg11.dtd"><svg xmlns="http://www.w3.org/2000/svg" xmlns:xlink="http://www.w3.org/1999/xlink"><defs/><symbol id="clear" viewBox="0 0 1024 1024"><path d="M274.56 798.997333l19.434667-25.130666-33.792 68.565333a18.133333 18.133333 0 0 0 11.562666 25.536l59.733334 16a18.133333 18.133333 0 0 0 17.28-4.48c20.522667-19.818667 35.626667-35.989333 45.290666-48.469333l19.456-25.130667-33.813333 68.565333a18.133333 18.133333 0 0 0 11.562667 25.536l84.48 22.634667a18.133333 18.133333 0 0 0 17.28-4.48c20.522667-19.84 35.626667-35.989333 45.269333-48.469333l19.456-25.130667-33.813333 68.565333A18.133333 18.133333 0 0 0 535.530667 938.666667l72.106666 19.328a18.133333 18.133333 0 0 0 17.28-4.48c20.522667-19.84 35.626667-36.010667 45.269334-48.490667l19.456-25.130667-33.813334 68.586667a18.133333 18.133333 0 0 0 11.584 25.514667l86.421334 23.338666 3.84-0.213333c13.269333-0.704 29.056-5.034667 43.84-12.8 29.781333-15.701333 48.170667-43.2 52.181333-78.250667 2.133333-18.517333 4.778667-38.549333 8.405333-63.530666 1.642667-11.221333 2.944-20.010667 6.229334-41.834667 11.050667-73.322667 14.634667-101.034667 17.130666-133.674667l0.938667-12.373333 2.837333-2.922667 12.330667-1.344a41.813333 41.813333 0 0 0 24.810667-11.221333c10.730667-10.24 14.805333-25.386667 11.093333-42.197333l-37.546667-171.584c-3.029333-13.696-11.264-27.946667-23.146666-39.829334-11.648-11.626667-25.92-20.138667-39.893334-23.893333L723.626667 331.306667l-2.261334-3.925334L774.250667 130.133333c8.32-31.061333-11.754667-63.744-44.970667-72.64l-79.509333-21.312c-33.194667-8.896-66.922667 9.365333-75.264 40.426667l-52.842667 197.269333-3.925333 2.261334-118.101334-31.637334c-13.994667-3.754667-30.634667-3.498667-46.506666 0.746667-16.256 4.352-30.506667 12.586667-39.957334 22.933333l-118.314666 129.792c-11.605333 12.714667-15.658667 27.84-11.52 42.090667 4.16 14.229333 15.850667 25.194667 32.896 30.528l13.610666 4.266667 2.133334 3.882666-3.626667 13.802667c-21.12 79.850667-52.885333 136.917333-85.717333 150.890667-47.530667 20.202667-72.938667 49.429333-78.421334 85.034666-5.034667 32.682667 9.28 67.114667 37.589334 91.541334l22.037333 8.341333 74.666667 20.010667a42.666667 42.666667 0 0 0 41.216-11.050667c15.274667-15.274667 26.88-28.032 34.837333-38.293333z m551.381333-396.565333c14.144 3.797333 29.952 19.2 32.768 32l34.56 157.781333a10.666667 10.666667 0 0 1-13.184 12.586667L240.64 433.493333a10.666667 10.666667 0 0 1-5.12-17.493333l108.8-119.36c8.832-9.685333 30.229333-15.146667 44.373333-11.349333l141.333334 37.866666a21.333333 21.333333 0 0 0 26.133333-15.082666l58.304-217.642667a21.333333 21.333333 0 0 1 26.133333-15.082667l77.056 20.650667a21.333333 21.333333 0 0 1 15.082667 26.133333l-58.325333 217.642667a21.333333 21.333333 0 0 0 15.082666 26.112l136.448 36.565333zM315.456 701.568c-33.664 45.141333-64.597333 79.082667-92.8 101.802667l-5.909333 4.778666-2.837334 0.597334-88.106666-24.106667-2.922667-3.2c-13.034667-14.165333-19.370667-31.04-16.981333-46.592 3.285333-21.333333 22.058667-39.338667 53.205333-52.586667 31.722667-13.482667 59.818667-47.104 82.922667-99.904 10.026667-22.954667 18.88-48.725333 26.389333-76.586666l3.882667-14.4 3.904-2.261334 566.165333 151.701334 2.346667 3.306666-0.789334 12.224c-1.984 30.592-30.336 229.397333-32.128 244.906667-2.346667 20.416-11.306667 34.986667-27.605333 44.394667a73.237333 73.237333 0 0 1-21.397333 8.106666l-5.013334 0.725334-60.373333-16.170667 11.242667-20.288c8.277333-14.976 22.656-43.84 43.093333-86.613333a21.12 21.12 0 0 0-9.962667-28.16l-3.136-1.493334a21.333333 21.333333 0 0 0-26.261333 6.485334c-33.642667 45.056-64.533333 78.912-92.672 101.546666l-5.909333 4.757334-2.837334 0.597333-52.544-14.08 11.114667-20.266667c3.562667-6.485333 7.04-13.013333 10.453333-19.626666 7.04-13.504 17.898667-35.797333 32.597334-66.816a21.290667 21.290667 0 0 0-9.984-28.309334l-3.029334-1.450666a21.333333 21.333333 0 0 0-26.368 6.442666c-33.6 45.013333-64.469333 78.826667-92.608 101.482667l-5.909333 4.757333-2.837333 0.597334-52.138667-13.973334 11.114667-20.266666c3.242667-5.888 6.72-12.416 10.453333-19.626667 6.997333-13.461333 17.962667-35.946667 32.896-67.434667a20.970667 20.970667 0 0 0-10.112-28.010666l-3.328-1.536a21.333333 21.333333 0 0 0-26.069333 6.613333c-33.642667 45.056-64.554667 78.976-92.778667 101.696l-5.909333 4.757333-2.837334 0.597334-32.64-8.746667 11.093334-20.245333c3.541333-6.506667 7.04-13.034667 10.453333-19.626667 6.976-13.482667 17.941333-35.968 32.874667-67.456a21.056 21.056 0 0 0-10.069334-28.074667l-3.242666-1.514666a21.333333 21.333333 0 0 0-26.154667 6.549333z" fill="#dbdbdb" p-id="3461"/></symbol><symbol id="close" viewBox="0 0 1024 1024"><path d="M550.848 502.496l308.64-308.896a31.968 31.968 0 1 0-45.248-45.248l-308.608 308.896-308.64-308.928a31.968 31.968 0 1 0-45.248 45.248l308.64 308.896-308.64 308.896a31.968 31.968 0 1 0 45.248 45.248l308.64-308.896 308.608 308.896a31.968 31.968 0 1 0 45.248-45.248l-308.64-308.864z" p-id="5904" fill="#ffffff"/></symbol><symbol id="pcb_file" viewBox="0 0 48 48">
    <path d="M11,44C10.2,44 9.5,43.7 8.9,43.1C8.3,42.5 8,41.8 8,41L8,7C8,6.2 8.3,5.5 8.9,4.9C9.5,4.3 10.2,4 11,4L29.05,4L40,14.95L40,41C40,41.8 39.7,42.5 39.1,43.1C38.5,43.7 37.8,44 37,44L11,44ZM27.55,16.3L27.55,7L11,7L11,41L37,41L37,16.3L27.55,16.3ZM11,7L11,16.3L11,7L11,41L11,7Z"/>
    <path d="M20.231,37.681C20.231,37.681 20.231,36.001 20.231,36.001L18.007,36.001C17.437,36.001 16.936,35.792 16.509,35.365C16.081,34.937 15.872,34.437 15.872,33.867L15.872,31.643L13.693,31.643L13.693,29.008C13.693,29.008 15.872,29.008 15.872,29.008L15.872,26.63L13.693,26.63L13.693,23.995C13.693,23.995 15.872,23.995 15.872,23.995L15.872,21.771C15.872,21.201 16.081,20.701 16.509,20.273C16.936,19.846 17.437,19.636 18.007,19.636C18.007,19.636 20.231,19.636 20.231,19.636L20.231,17.566L22.865,17.566C22.865,17.566 22.865,19.636 22.865,19.636C22.865,19.636 25.244,19.636 25.244,19.636L25.244,17.566L27.878,17.566C27.878,17.566 27.878,19.636 27.878,19.636L30.102,19.636C30.672,19.636 31.173,19.846 31.6,20.273C32.028,20.701 32.237,21.201 32.237,21.771C32.237,21.771 32.237,23.995 32.237,23.995L34.307,23.995L34.307,26.63C34.307,26.63 32.237,26.63 32.237,26.63C32.237,26.63 32.237,29.008 32.237,29.008L34.307,29.008L34.307,31.643C34.307,31.643 32.237,31.643 32.237,31.643L32.237,33.867C32.237,34.437 32.028,34.937 31.6,35.365C31.173,35.792 30.672,36.001 30.102,36.001L27.878,36.001L27.878,38.181L25.244,38.181C25.244,38.181 25.244,36.001 25.244,36.001L22.865,36.001L22.865,38.181L20.231,38.181L20.231,37.681ZM29.602,33.367L29.602,22.271L18.507,22.271L18.507,33.367L29.602,33.367ZM20.694,24.595L27.279,24.595L27.279,31.179L20.694,31.179L20.694,24.595ZM23.329,28.545C23.329,28.545 24.644,28.545 24.644,28.545C24.644,28.545 24.644,27.229 24.644,27.229C24.644,27.229 23.329,27.229 23.329,27.229L23.329,28.545Z"/>
</symbol><symbol id="reset" viewBox="0 0 1024 1024">
    <path d="M16 960.608L63.392 1008l323.232-323.232v146.048h66.688v-260.128H193.184v66.688h146.048L16 960.608z m621.376-621.376V193.184h-66.688v260.128h260.128v-66.688h-146.048L1008 63.392 960.608 16 637.376 339.232z m193.44 298.144v-66.688h-260.128v260.128h66.688v-146.048L960.608 1008l47.392-47.392-323.232-323.232h146.048zM16 63.392l323.232 323.232H193.184v66.688h260.128V193.184h-66.688v146.048L63.392 16 16 63.392z" p-id="33295" fill="#ffffff"/>
</symbol><symbol id="schematic_file" viewBox="0 0 48 48">
    <path d="M11,44C10.2,44 9.5,43.7 8.9,43.1C8.3,42.5 8,41.8 8,41L8,7C8,6.2 8.3,5.5 8.9,4.9C9.5,4.3 10.2,4 11,4L29.05,4L40,14.95L40,41C40,41.8 39.7,42.5 39.1,43.1C38.5,43.7 37.8,44 37,44L11,44ZM27.55,16.3L27.55,7L11,7L11,41L37,41L37,16.3L27.55,16.3ZM11,7L11,16.3L11,7L11,41L11,7Z"/>
    <path d="M18.256,26.367L15.377,26.367L15.377,23.367L18.256,23.367L18.256,23.184C18.256,22.155 18.784,21.198 19.654,20.648C20.524,20.098 21.615,20.033 22.544,20.475L24.69,21.494L24.69,19.353L27.69,19.353L27.69,22.92L32.411,25.164C33.457,25.661 34.123,26.715 34.123,27.873C34.123,29.031 33.457,30.086 32.411,30.583L27.69,32.827L27.69,36.394L24.69,36.394L24.69,34.252L22.544,35.272C21.615,35.714 20.524,35.648 19.654,35.099C18.784,34.549 18.256,33.592 18.256,32.563L18.256,32.38L15.377,32.38L15.377,29.38L18.256,29.38L18.256,26.367ZM21.256,32.563L31.123,27.873L21.256,23.184L21.256,32.563Z"/>
</symbol><symbol id="visibility" viewBox="0 0 1024 1024">
   <path d="M1019.733333 494.933333s-4.266667-12.8-8.533333-17.066666l-21.333333-42.666667c-21.333333-34.133333-51.2-76.8-93.866667-123.733333C814.933333 221.866667 686.933333 128 512 128S209.066667 221.866667 128 311.466667C85.333333 358.4 55.466667 401.066667 34.133333 435.2c-8.533333 17.066667-17.066667 29.866667-21.333333 42.666667-4.266667 4.266667-8.533333 17.066667-8.533333 17.066666-4.266667 12.8-4.266667 25.6 0 34.133334 0 0 4.266667 12.8 8.533333 17.066666l21.333333 42.666667c21.333333 34.133333 51.2 76.8 93.866667 123.733333 81.066667 89.6 209.066667 183.466667 384 183.466667s302.933333-93.866667 384-183.466667c42.666667-46.933333 72.533333-89.6 93.866667-123.733333 8.533333-17.066667 17.066667-29.866667 21.333333-42.666667 4.266667-4.266667 8.533333-17.066667 8.533333-17.066666 4.266667-12.8 4.266667-21.333333 0-34.133334z m-102.4 46.933334c-17.066667 29.866667-46.933333 72.533333-81.066666 110.933333-76.8 81.066667-183.466667 157.866667-324.266667 157.866667s-247.466667-76.8-324.266667-157.866667c-38.4-38.4-64-81.066667-81.066666-110.933333-8.533333-12.8-12.8-21.333333-17.066667-29.866667 4.266667-8.533333 8.533333-17.066667 17.066667-29.866667 21.333333-29.866667 46.933333-72.533333 81.066666-110.933333C264.533333 290.133333 371.2 213.333333 512 213.333333s247.466667 76.8 324.266667 157.866667c38.4 38.4 64 81.066667 81.066666 110.933333 8.533333 12.8 12.8 21.333333 17.066667 29.866667-4.266667 8.533333-12.8 17.066667-17.066667 29.866667z" fill="#ffffff" p-id="18831"/>
   <path d="M512 358.4c-76.8 0-145.066667 68.266667-145.066667 153.6s68.266667 153.6 145.066667 153.6 145.066667-68.266667 145.066667-153.6-68.266667-153.6-145.066667-153.6zM281.6 512C281.6 384 384 273.066667 512 273.066667S742.4 384 742.4 512 640 750.933333 512 750.933333 281.6 640 281.6 512z" fill="#ffffff" p-id="18832"/>
</symbol><symbol id="visibility_off" viewBox="0 0 1024 1024">
   <path d="M512.012373 213.333333c-20.010667 0-39.210667 1.493333-57.642666 4.266667a42.666667 42.666667 0 0 1-12.714667-84.394667C464.268373 129.792 487.73504 128 512.012373 128c175.402667 0 303.36 94.506667 385.322667 184.618667a790.186667 790.186667 0 0 1 114.858667 165.290666 490.026667 490.026667 0 0 1 7.466666 15.274667l0.426667 0.981333 0.170667 0.341334v0.085333l0.042666 0.042667L981.345707 512l38.997333 17.365333-0.085333 0.128-0.085334 0.213334-0.341333 0.768a656.64 656.64 0 0 1-22.613333 43.264 800.853333 800.853333 0 0 1-67.84 99.925333 42.666667 42.666667 0 0 1-66.773334-53.12A714.837333 714.837333 0 0 0 933.772373 512a704.64 704.64 0 0 0-99.541333-141.952C760.929707 289.493333 654.177707 213.333333 512.012373 213.333333z m469.333334 298.666667l38.997333 17.365333a42.794667 42.794667 0 0 0 0-34.730666L981.345707 512zM186.977707 309.76a42.666667 42.666667 0 0 1 2.816 60.288A704.853333 704.853333 0 0 0 90.252373 512a705.066667 705.066667 0 0 0 99.541334 141.952C263.09504 734.506667 369.84704 810.666667 512.012373 810.666667a381.738667 381.738667 0 0 0 134.4-24.149334 42.666667 42.666667 0 0 1 29.866667 79.914667A467.157333 467.157333 0 0 1 512.012373 896c-175.402667 0-303.36-94.506667-385.322666-184.618667a790.058667 790.058667 0 0 1-114.858667-165.290666 470.101333 470.101333 0 0 1-7.466667-15.274667l-0.426666-0.981333-0.170667-0.341334-0.042667-0.085333v-0.042667L42.67904 512l-38.997333-17.365333 0.042666-0.042667 0.042667-0.085333 0.128-0.341334 0.426667-0.981333 1.621333-3.328a701.866667 701.866667 0 0 1 28.842667-53.12 790.186667 790.186667 0 0 1 91.904-124.117333 42.666667 42.666667 0 0 1 60.288-2.858667zM42.67904 512l-38.997333-17.365333a42.794667 42.794667 0 0 0 0 34.730666L42.67904 512z" fill="#888888" p-id="19614"/>
   <path d="M469.345707 316.970667a42.666667 42.666667 0 0 1 42.666666-42.666667c128.768 0 230.4 107.946667 230.4 237.696a42.666667 42.666667 0 1 1-85.333333 0c0-85.717333-66.474667-152.362667-145.066667-152.362667a42.666667 42.666667 0 0 1-42.666666-42.666666z m-131.584 110.634666a42.666667 42.666667 0 0 1 32.725333 50.688A160.426667 160.426667 0 0 0 366.945707 512c0 85.717333 66.474667 152.362667 145.066666 152.362667 11.264 0 22.186667-1.322667 32.64-3.84a42.666667 42.666667 0 0 1 20.053334 82.944A224.128 224.128 0 0 1 512.012373 749.653333c-128.768 0-230.4-107.946667-230.4-237.696 0-17.664 1.877333-34.986667 5.461334-51.626666a42.666667 42.666667 0 0 1 50.688-32.768zM97.84704 55.168a42.666667 42.666667 0 0 1 60.330667 0l768 768a42.666667 42.666667 0 0 1-60.330667 60.330667l-768-768a42.666667 42.666667 0 0 1 0-60.330667z" fill="#888888" p-id="19615"/>
</symbol><symbol id="zoom_footprint" viewBox="0 0 48 48">
    <g>
        <path d="M33,38.5C34.567,38.5 35.875,37.975 36.925,36.925C37.975,35.875 38.5,34.567 38.5,33C38.5,31.433 37.975,30.125 36.925,29.075C35.875,28.025 34.567,27.5 33,27.5C31.433,27.5 30.125,28.025 29.075,29.075C28.025,30.125 27.5,31.433 27.5,33C27.5,34.567 28.025,35.875 29.075,36.925C30.125,37.975 31.433,38.5 33,38.5ZM43.2,45.3L37.842,39.95C37.147,40.417 36.392,40.792 35.575,41.075C34.758,41.358 33.9,41.5 33,41.5C30.639,41.5 28.632,40.673 26.979,39.019C25.326,37.365 24.5,35.357 24.5,32.994C24.5,30.631 25.327,28.625 26.981,26.975C28.635,25.325 30.643,24.5 33.006,24.5C35.369,24.5 37.375,25.326 39.025,26.979C40.675,28.632 41.5,30.639 41.5,33C41.5,33.9 41.358,34.758 41.075,35.575C40.792,36.392 40.417,37.147 39.95,37.842L45.3,43.2L43.2,45.3Z"/>
        <path d="M22.597,38L21,38L21,42L18,42L18,38L13,38C12.2,38 11.5,37.7 10.9,37.1C10.3,36.5 10,35.8 10,35L10,30L6,30L6,27L10,27L10,20.8L6,20.8L6,17.8L10,17.8L10,12.8C10,12 10.3,11.3 10.9,10.7C11.5,10.1 12.2,9.8 13,9.8L18,9.8L18,6L21,6L21,9.8L27.2,9.8L27.2,6L30.2,6L30.2,9.8L35.2,9.8C36,9.8 36.7,10.1 37.3,10.7C37.9,11.3 38.2,12 38.2,12.8L38.2,17.8L42,17.8L42,20.8L38.2,20.8L38.2,22.691C37.262,22.214 36.262,21.88 35.2,21.69L35.2,12.8L13,12.8L13,35L21.657,35C21.83,36.06 22.143,37.06 22.597,38ZM22.119,29.15L18.85,29.15L18.85,18.9L29.1,18.9L29.1,22.139C28.029,22.515 27.029,23.058 26.1,23.767L26.1,21.9L21.85,21.9L21.85,26.15L23.727,26.15C23.025,27.079 22.489,28.079 22.119,29.15Z"/>
    </g>
</symbol><symbol id="zoom_in" viewBox="0 0 1024 1024">
    <path d="M801.171 547.589H222.83c-17.673 0-32-14.327-32-32s14.327-32 32-32h578.341c17.673 0 32 14.327 32 32s-14.327 32-32 32z" fill="#e6e6e6" p-id="45748"/>
</symbol><symbol id="zoom_out" viewBox="0 0 1024 1024"><path d="M469.333333 469.333333V170.666667h85.333334v298.666666h298.666666v85.333334h-298.666666v298.666666h-85.333334v-298.666666H170.666667v-85.333334h298.666666z" fill="#ffffff" p-id="44249"/></symbol><symbol id="zoom_page" viewBox="0 0 48 48">
    <g>
        <path d="M9,41L24.75,41C25.417,41.7 26.158,42.3 26.975,42.8C27.792,43.3 28.683,43.7 29.65,44L9,44C8.2,44 7.5,43.7 6.9,43.1C6.3,42.5 6,41.8 6,41L6.02,9.006C6.02,8.206 6.32,7.506 6.92,6.906C7.52,6.306 8.22,6.006 9.02,6.006L27.07,6.006L38,14.95L38,22.65C37.533,22.417 37.05,22.217 36.55,22.05C36.05,21.883 35.533,21.75 35,21.65L35,16.3L25.55,16.3L25.57,9.006L9.02,9.006L9,16.3L9,41Z"/>
        <path d="M43.2,45.3L37.842,39.95C37.147,40.417 36.392,40.792 35.575,41.075C34.758,41.358 33.9,41.5 33,41.5C30.639,41.5 28.632,40.673 26.979,39.019C25.326,37.365 24.5,35.357 24.5,32.994C24.5,30.631 25.327,28.625 26.981,26.975C28.635,25.325 30.643,24.5 33.006,24.5C35.369,24.5 37.375,25.326 39.025,26.979C40.675,28.632 41.5,30.639 41.5,33C41.5,33.9 41.358,34.758 41.075,35.575C40.792,36.392 40.417,37.147 39.95,37.842L45.3,43.2L43.2,45.3ZM33,38.5C34.567,38.5 35.875,37.975 36.925,36.925C37.975,35.875 38.5,34.567 38.5,33C38.5,31.433 37.975,30.125 36.925,29.075C35.875,28.025 34.567,27.5 33,27.5C31.433,27.5 30.125,28.025 29.075,29.075C28.025,30.125 27.5,31.433 27.5,33C27.5,34.567 28.025,35.875 29.075,36.925C30.125,37.975 31.433,38.5 33,38.5Z"/>
    </g>
</symbol></svg>